<svg xmlns="http://www.w3.org/2000/svg" xmlns:xlink="http://www.w3.org/1999/xlink" contentStyleType="text/css" height="327px" preserveAspectRatio="none" style="width:489px;height:327px;background:#FFFFFF;" version="1.1" viewBox="0 0 489 327" width="489px" zoomAndPan="magnify"><defs/><g><line style="stroke:#181818;stroke-width:0.5;stroke-dasharray:5.0,5.0;" x1="31" x2="31" y1="81.2969" y2="246.9609"/><line style="stroke:#181818;stroke-width:0.5;stroke-dasharray:5.0,5.0;" x1="122.9883" x2="122.9883" y1="81.2969" y2="246.9609"/><line style="stroke:#181818;stroke-width:0.5;stroke-dasharray:5.0,5.0;" x1="196.5029" x2="196.5029" y1="81.2969" y2="246.9609"/><line style="stroke:#181818;stroke-width:0.5;stroke-dasharray:5.0,5.0;" x1="295.0239" x2="295.0239" y1="81.2969" y2="246.9609"/><line style="stroke:#181818;stroke-width:0.5;stroke-dasharray:5.0,5.0;" x1="370.4233" x2="370.4233" y1="81.2969" y2="246.9609"/><line style="stroke:#181818;stroke-width:0.5;stroke-dasharray:5.0,5.0;" x1="444.105" x2="444.105" y1="81.2969" y2="246.9609"/><text fill="#000000" font-family="sans-serif" font-size="14" lengthAdjust="spacing" textLength="47.1338" x="5" y="77.9951">Author</text><ellipse cx="31.5669" cy="13.5" fill="#E2E2F0" rx="8" ry="8" style="stroke:#181818;stroke-width:0.5;"/><path d="M31.5669,21.5 L31.5669,48.5 M18.5669,29.5 L44.5669,29.5 M31.5669,48.5 L18.5669,63.5 M31.5669,48.5 L44.5669,63.5 " fill="none" style="stroke:#181818;stroke-width:0.5;"/><text fill="#000000" font-family="sans-serif" font-size="14" lengthAdjust="spacing" textLength="47.1338" x="5" y="258.9561">Author</text><ellipse cx="31.5669" cy="270.7578" fill="#E2E2F0" rx="8" ry="8" style="stroke:#181818;stroke-width:0.5;"/><path d="M31.5669,278.7578 L31.5669,305.7578 M18.5669,286.7578 L44.5669,286.7578 M31.5669,305.7578 L18.5669,320.7578 M31.5669,305.7578 L44.5669,320.7578 " fill="none" style="stroke:#181818;stroke-width:0.5;"/><rect fill="#E2E2F0" height="30.2969" rx="2.5" ry="2.5" style="stroke:#181818;stroke-width:0.5;" width="62.5146" x="91.9883" y="50"/><text fill="#000000" font-family="sans-serif" font-size="14" lengthAdjust="spacing" textLength="48.5146" x="98.9883" y="69.9951">GitHub</text><rect fill="#E2E2F0" height="30.2969" rx="2.5" ry="2.5" style="stroke:#181818;stroke-width:0.5;" width="62.5146" x="91.9883" y="245.9609"/><text fill="#000000" font-family="sans-serif" font-size="14" lengthAdjust="spacing" textLength="48.5146" x="98.9883" y="265.9561">GitHub</text><rect fill="#E2E2F0" height="30.2969" rx="2.5" ry="2.5" style="stroke:#181818;stroke-width:0.5;" width="65.3857" x="164.5029" y="50"/><text fill="#000000" font-family="sans-serif" font-size="14" lengthAdjust="spacing" textLength="51.3857" x="171.5029" y="69.9951">Actions</text><rect fill="#E2E2F0" height="30.2969" rx="2.5" ry="2.5" style="stroke:#181818;stroke-width:0.5;" width="65.3857" x="164.5029" y="245.9609"/><text fill="#000000" font-family="sans-serif" font-size="14" lengthAdjust="spacing" textLength="51.3857" x="171.5029" y="265.9561">Actions</text><rect fill="#E2E2F0" height="30.2969" rx="2.5" ry="2.5" style="stroke:#181818;stroke-width:0.5;" width="79.3994" x="256.0239" y="50"/><text fill="#000000" font-family="sans-serif" font-size="14" lengthAdjust="spacing" textLength="65.3994" x="263.0239" y="69.9951">PlantUML</text><rect fill="#E2E2F0" height="30.2969" rx="2.5" ry="2.5" style="stroke:#181818;stroke-width:0.5;" width="79.3994" x="256.0239" y="245.9609"/><text fill="#000000" font-family="sans-serif" font-size="14" lengthAdjust="spacing" textLength="65.3994" x="263.0239" y="265.9561">PlantUML</text><rect fill="#E2E2F0" height="30.2969" rx="2.5" ry="2.5" style="stroke:#181818;stroke-width:0.5;" width="50.6816" x="345.4233" y="50"/><text fill="#000000" font-family="sans-serif" font-size="14" lengthAdjust="spacing" textLength="36.6816" x="352.4233" y="69.9951">Astro</text><rect fill="#E2E2F0" height="30.2969" rx="2.5" ry="2.5" style="stroke:#181818;stroke-width:0.5;" width="50.6816" x="345.4233" y="245.9609"/><text fill="#000000" font-family="sans-serif" font-size="14" lengthAdjust="spacing" textLength="36.6816" x="352.4233" y="265.9561">Astro</text><rect fill="#E2E2F0" height="30.2969" rx="2.5" ry="2.5" style="stroke:#181818;stroke-width:0.5;" width="77.1914" x="406.105" y="50"/><text fill="#000000" font-family="sans-serif" font-size="14" lengthAdjust="spacing" textLength="63.1914" x="413.105" y="69.9951">GHPages</text><rect fill="#E2E2F0" height="30.2969" rx="2.5" ry="2.5" style="stroke:#181818;stroke-width:0.5;" width="77.1914" x="406.105" y="245.9609"/><text fill="#000000" font-family="sans-serif" font-size="14" lengthAdjust="spacing" textLength="63.1914" x="413.105" y="265.9561">GHPages</text><polygon fill="#181818" points="111.2456,108.4297,121.2456,112.4297,111.2456,116.4297,115.2456,112.4297" style="stroke:#181818;stroke-width:1.0;"/><line style="stroke:#181818;stroke-width:1.0;" x1="31.5669" x2="117.2456" y1="112.4297" y2="112.4297"/><text fill="#000000" font-family="sans-serif" font-size="13" lengthAdjust="spacing" textLength="67.6787" x="38.5669" y="107.3638">push JSON</text><polygon fill="#181818" points="185.1958,137.5625,195.1958,141.5625,185.1958,145.5625,189.1958,141.5625" style="stroke:#181818;stroke-width:1.0;"/><line style="stroke:#181818;stroke-width:1.0;" x1="123.2456" x2="191.1958" y1="141.5625" y2="141.5625"/><text fill="#000000" font-family="sans-serif" font-size="13" lengthAdjust="spacing" textLength="43.9004" x="130.2456" y="136.4966">trigger</text><polygon fill="#181818" points="283.7236,166.6953,293.7236,170.6953,283.7236,174.6953,287.7236,170.6953" style="stroke:#181818;stroke-width:1.0;"/><line style="stroke:#181818;stroke-width:1.0;" x1="197.1958" x2="289.7236" y1="170.6953" y2="170.6953"/><text fill="#000000" font-family="sans-serif" font-size="13" lengthAdjust="spacing" textLength="74.5278" x="204.1958" y="165.6294">render SVG</text><polygon fill="#181818" points="358.7642,195.8281,368.7642,199.8281,358.7642,203.8281,362.7642,199.8281" style="stroke:#181818;stroke-width:1.0;"/><line style="stroke:#181818;stroke-width:1.0;" x1="197.1958" x2="364.7642" y1="199.8281" y2="199.8281"/><text fill="#000000" font-family="sans-serif" font-size="13" lengthAdjust="spacing" textLength="31.9668" x="204.1958" y="194.7622">build</text><polygon fill="#181818" points="432.7007,224.9609,442.7007,228.9609,432.7007,232.9609,436.7007,228.9609" style="stroke:#181818;stroke-width:1.0;"/><line style="stroke:#181818;stroke-width:1.0;" x1="197.1958" x2="438.7007" y1="228.9609" y2="228.9609"/><text fill="#000000" font-family="sans-serif" font-size="13" lengthAdjust="spacing" textLength="43.7607" x="204.1958" y="223.895">deploy</text><!--SRC=[IqmkoIzIS2mjoSWlue9G2hfs2kwP9HwbIGfM2WMbnHaANi7-VbnG8Q2aOt99PdvUCL2sf2WpFJqLg14g0fGCo4dCAmdrzG7A5gNcfQGMAGI7kIChS2mkASe7oYQLPkQa84kuUmGafgU2Z4r9BSZ9hmG0]--></g></svg>